<svg width="177" height="122" xmlns="http://www.w3.org/2000/svg">
 <!-- Created with Method Draw - http://github.com/duopixel/Method-Draw/ -->

 <g>
  <title>background</title>
  <rect fill="none" id="canvas_background" height="124" width="179" y="-1" x="-1"/>
  <g display="none" overflow="visible" y="0" x="0" height="100%" width="100%" id="canvasGrid">
   <rect fill="url(#gridpattern)" stroke-width="0" y="0" x="0" height="100%" width="100%"/>
  </g>
 </g>
 <g>
  <title>Layer 1</title>
  <style transform="matrix(39.0625,0,0,39.0625,0,0) " type="text/css">.st0{fill:none;stroke:#000000;stroke-width:2;stroke-linecap:round;stroke-linejoin:round;stroke-miterlimit:10;}</style>
  <g transform="rotate(-18.19965934753418 93.4695816040039,72.48857879638672) " stroke="null" id="svg_8">
   <path transform="rotate(-0.07898540049791336 93.46957397460766,50.43618011474165) " fill="#08363a" stroke="null" id="svg_5" d="m180.21455,39.64941c-2.20926,-1.96123 -5.52314,-1.96123 -7.7324,0c-9.94166,8.33523 -22.64489,13.23831 -35.90043,13.23831l-86.16103,0c-13.80786,0 -26.51109,-4.90308 -35.90043,-13.23831c-2.20926,-1.96123 -5.52314,-1.96123 -7.7324,0s-2.20926,4.90308 0,6.86431c11.5986,10.29646 27.0634,16.18015 43.63283,16.18015l85.60871,0c16.56943,0 32.03423,-5.88369 43.63283,-16.18015c2.76157,-1.96123 2.76157,-4.90308 0.55231,-6.86431z"/>
   <path transform="rotate(-0.07898540049791336 43.843666076664526,87.2776947021485) " fill="#08363a" stroke="null" id="svg_6" d="m43.84366,67.66539c-12.15091,0 -22.09257,8.82554 -22.09257,19.61231s9.94166,19.61231 22.09257,19.61231s22.09257,-8.82554 22.09257,-19.61231s-9.94166,-19.61231 -22.09257,-19.61231zm0,24.51538c-3.31389,0 -5.52314,-2.45154 -5.52314,-4.90308s2.76157,-4.90308 5.52314,-4.90308s5.52314,2.45154 5.52314,4.90308s-2.20926,4.90308 -5.52314,4.90308z"/>
   <path transform="rotate(-0.07898540049791336 143.26013183593196,87.14065551757152) " fill="#08363a" stroke="null" id="svg_7" d="m143.26014,67.52834c-12.15091,0 -22.09257,8.82554 -22.09257,19.61231s9.94166,19.61231 22.09257,19.61231s22.09257,-8.82554 22.09257,-19.61231s-9.94166,-19.61231 -22.09257,-19.61231zm0,24.51538c-3.31389,0 -5.52314,-2.45154 -5.52314,-4.90308s2.76157,-4.90308 5.52314,-4.90308s5.52314,2.45154 5.52314,4.90308s-2.20926,4.90308 -5.52314,4.90308z"/>
  </g>
  <text stroke="#000" transform="rotate(-18.849092483520508 81.42729949951172,30.81250762939455) matrix(1.477103352546692,0,0,1.8518518209457397,-187.74016922712326,-381.6296157836914) " font-weight="bold" xml:space="preserve" text-anchor="start" font-family="Helvetica, Arial, sans-serif" font-size="24" id="svg_9" y="230.78" x="134.88573" stroke-width="0" fill="#08363a">Surpass</text>
 </g>
</svg>